<?xml version="1.0" encoding="UTF-8" standalone="no"?>
<svg
   data-name="Layer 1"
   height="24"
   id="Layer_1"
   viewBox="0 0 24 24"
   width="24"
   version="1.1"
   sodipodi:docname="icon2.svg"
   inkscape:version="1.1 (c68e22c387, 2021-05-23)"
   inkscape:export-filename="C:\Users\Anton\Documents\Git\goInsomnia\asserts\16.png"
   inkscape:export-xdpi="64"
   inkscape:export-ydpi="64"
   xmlns:inkscape="http://www.inkscape.org/namespaces/inkscape"
   xmlns:sodipodi="http://sodipodi.sourceforge.net/DTD/sodipodi-0.dtd"
   xmlns="http://www.w3.org/2000/svg"
   xmlns:svg="http://www.w3.org/2000/svg">
  <defs
     id="defs61" />
  <sodipodi:namedview
     id="namedview59"
     pagecolor="#ffffff"
     bordercolor="#666666"
     borderopacity="1.0"
     inkscape:pageshadow="2"
     inkscape:pageopacity="0.0"
     inkscape:pagecheckerboard="0"
     showgrid="true"
     showguides="true"
     inkscape:zoom="35.375"
     inkscape:cx="10.897527"
     inkscape:cy="11.971731"
     inkscape:window-width="1858"
     inkscape:window-height="1057"
     inkscape:window-x="-8"
     inkscape:window-y="-8"
     inkscape:window-maximized="1"
     inkscape:current-layer="Layer_1">
    <inkscape:grid
       type="xygrid"
       id="grid388" />
  </sodipodi:namedview>
  <title
     id="title36" />
  <path
     id="ellipse38"
     style="fill:#4b5661;stroke-width:0.5;stroke:#bebebe;stroke-opacity:1;opacity:1;stroke-miterlimit:4;stroke-dasharray:none"
     d="M 17.927734 0.70703125 A 0.5444302 0.5444302 0 0 0 17.603516 0.86328125 L 15.386719 3.0800781 A 6.5331624 6.5331624 0 0 0 12 2.1113281 A 6.5331624 6.5331624 0 0 0 8.578125 3.1035156 L 6.4003906 0.88476562 A 0.5444302 0.5444302 0 0 0 5.4667969 1.265625 L 5.4667969 7.6894531 A 2.722151 5.9887328 0 0 0 3.2890625 13.544922 A 2.722151 5.9887328 0 0 0 6.0117188 19.533203 A 2.722151 5.9887328 0 0 0 6.8769531 19.207031 A 6.5331624 6.5331624 0 0 0 12 21.710938 A 6.5331624 6.5331624 0 0 0 17.123047 19.207031 A 2.722151 5.9887328 0 0 0 17.988281 19.533203 A 2.722151 5.9887328 0 0 0 20.710938 13.544922 A 2.722151 5.9887328 0 0 0 18.533203 7.6777344 L 18.533203 1.2480469 A 0.5444302 0.5444302 0 0 0 17.927734 0.70703125 z " />
  <circle
     cx="9.0056334"
     cy="7.8279095"
     style="fill:#fff4ab;stroke-width:1.08885"
     id="circle48"
     r="2.177721" />
  <circle
     cx="9.0056334"
     cy="7.8279095"
     style="fill:#4b5661;stroke-width:1.08885"
     id="circle50"
     r="0.81664526" />
  <circle
     cx="14.994365"
     cy="7.8279095"
     style="fill:#fff4ab;stroke-width:1.08885"
     id="circle52"
     r="2.177721" />
  <circle
     cx="14.994365"
     cy="7.8279095"
     style="fill:#4b5661;stroke-width:1.08885"
     id="circle54"
     r="0.81664526" />
  <path
     d="m 12,13 -1.088861,-2.177723 c 0,-0.391447 2.177722,-0.391447 2.177722,0 z"
     style="fill:#fff4ab;stroke-width:1.08885"
     id="path56" />
</svg>
