<?xml version="1.0" encoding="UTF-8" standalone="no"?>
<svg
   data-name="Layer 1"
   height="24"
   id="Layer_1"
   viewBox="0 0 24 24"
   width="24"
   version="1.1"
   sodipodi:docname="icon.svg"
   inkscape:version="1.1 (c68e22c387, 2021-05-23)"
   xmlns:inkscape="http://www.inkscape.org/namespaces/inkscape"
   xmlns:sodipodi="http://sodipodi.sourceforge.net/DTD/sodipodi-0.dtd"
   xmlns="http://www.w3.org/2000/svg"
   xmlns:svg="http://www.w3.org/2000/svg">
  <defs
     id="defs61" />
  <sodipodi:namedview
     id="namedview59"
     pagecolor="#ffffff"
     bordercolor="#666666"
     borderopacity="1.0"
     inkscape:pageshadow="2"
     inkscape:pageopacity="0.0"
     inkscape:pagecheckerboard="0"
     showgrid="true"
     showguides="true"
     inkscape:zoom="35.375"
     inkscape:cx="11.137809"
     inkscape:cy="11.971731"
     inkscape:window-width="1858"
     inkscape:window-height="1057"
     inkscape:window-x="-8"
     inkscape:window-y="-8"
     inkscape:window-maximized="1"
     inkscape:current-layer="Layer_1">
    <inkscape:grid
       type="xygrid"
       id="grid388" />
  </sodipodi:namedview>
  <title
     id="title36" />
  <ellipse
     cx="6.0112672"
     cy="13.544427"
     rx="2.722151"
     ry="5.9887328"
     style="fill:#4b5661;stroke-width:1.08885"
     id="ellipse38" />
  <ellipse
     cx="17.988731"
     cy="13.544427"
     rx="2.722151"
     ry="5.9887328"
     style="fill:#4b5661;stroke-width:1.08885"
     id="ellipse40" />
  <path
     d="m 12,21.710882 v 0 A 6.5331624,6.5331624 0 0 1 5.466837,15.177719 V 8.6445555 A 6.5331624,6.5331624 0 0 1 12,2.1113934 v 0 a 6.5331624,6.5331624 0 0 1 6.533162,6.5331621 V 15.17772 A 6.5331624,6.5331624 0 0 1 12,21.710882 Z"
     style="fill:#4b5661;stroke-width:1.08885"
     id="path42" />
  <path
     d="M 18.533162,8.6445555 13.088861,5.3779746 17.60371,0.8631239 a 0.5444302,0.5444302 0 0 1 0.929452,0.3849122 z"
     style="fill:#4b5661;stroke-width:1.08885"
     id="path44" />
  <path
     d="M 5.466837,8.6445555 10.54071,5.106195 6.3998815,0.8849011 a 0.5444302,0.5444302 0 0 0 -0.9330445,0.38121 z"
     style="fill:#4b5661;stroke-width:1.08885"
     id="path46" />
  <circle
     cx="9.0056334"
     cy="7.8279095"
     style="fill:#fff4ab;stroke-width:1.08885"
     id="circle48"
     r="2.177721" />
  <circle
     cx="9.0056334"
     cy="7.8279095"
     style="fill:#4b5661;stroke-width:1.08885"
     id="circle50"
     r="0.81664526" />
  <circle
     cx="14.994365"
     cy="7.8279095"
     style="fill:#fff4ab;stroke-width:1.08885"
     id="circle52"
     r="2.177721" />
  <circle
     cx="14.994365"
     cy="7.8279095"
     style="fill:#4b5661;stroke-width:1.08885"
     id="circle54"
     r="0.81664526" />
  <path
     d="m 12,13 -1.088861,-2.177723 c 0,-0.391447 2.177722,-0.391447 2.177722,0 z"
     style="fill:#fff4ab;stroke-width:1.08885"
     id="path56" />
</svg>
