<?xml version="1.0" encoding="UTF-8" standalone="no"?>
<svg
   data-name="Layer 1"
   height="24"
   id="Layer_1"
   viewBox="0 0 24 24"
   width="24"
   version="1.1"
   sodipodi:docname="icon2Empty.svg"
   inkscape:version="1.2.1 (9c6d41e, 2022-07-14)"
   inkscape:export-filename="C:\Users\Anton\Documents\Git\goInsomnia\asserts\16.png"
   inkscape:export-xdpi="64"
   inkscape:export-ydpi="64"
   xmlns:inkscape="http://www.inkscape.org/namespaces/inkscape"
   xmlns:sodipodi="http://sodipodi.sourceforge.net/DTD/sodipodi-0.dtd"
   xmlns="http://www.w3.org/2000/svg"
   xmlns:svg="http://www.w3.org/2000/svg">
  <defs
     id="defs61" />
  <sodipodi:namedview
     id="namedview59"
     pagecolor="#ffffff"
     bordercolor="#666666"
     borderopacity="1.0"
     inkscape:pageshadow="2"
     inkscape:pageopacity="0.0"
     inkscape:pagecheckerboard="0"
     showgrid="true"
     showguides="true"
     inkscape:zoom="25.013902"
     inkscape:cx="10.913931"
     inkscape:cy="12.053297"
     inkscape:window-width="1440"
     inkscape:window-height="847"
     inkscape:window-x="0"
     inkscape:window-y="25"
     inkscape:window-maximized="1"
     inkscape:current-layer="Layer_1"
     inkscape:showpageshadow="2"
     inkscape:deskcolor="#d1d1d1">
    <inkscape:grid
       type="xygrid"
       id="grid388" />
  </sodipodi:namedview>
  <title
     id="title36" />
  <path
     d="M 17.927734 0.70703125 A 0.5444302 0.5444302 0 0 0 17.603516 0.86328125 L 15.386719 3.0800781 A 6.5331624 6.5331624 0 0 0 12 2.1113281 A 6.5331624 6.5331624 0 0 0 8.578125 3.1035156 L 6.4003906 0.88476562 A 0.5444302 0.5444302 0 0 0 5.4667969 1.265625 L 5.4667969 7.6894531 A 2.722151 5.9887328 0 0 0 3.2890625 13.544922 A 2.722151 5.9887328 0 0 0 6.0117188 19.533203 A 2.722151 5.9887328 0 0 0 6.8769531 19.207031 A 6.5331624 6.5331624 0 0 0 12 21.710938 A 6.5331624 6.5331624 0 0 0 17.123047 19.207031 A 2.722151 5.9887328 0 0 0 17.988281 19.533203 A 2.722151 5.9887328 0 0 0 20.710938 13.544922 A 2.722151 5.9887328 0 0 0 18.533203 7.6777344 L 18.533203 1.2480469 A 0.5444302 0.5444302 0 0 0 17.927734 0.70703125 z M 15.732422 5.6269531 A 0.34020423 0.34020423 0 0 1 16.039062 5.9667969 L 16.039062 9.984375 A 1.7010212 3.742247 0 0 1 17.400391 13.650391 A 1.7010212 3.742247 0 0 1 15.699219 17.392578 A 1.7010212 3.742247 0 0 1 15.158203 17.1875 A 4.0824508 4.0824508 0 0 1 11.957031 18.751953 A 4.0824508 4.0824508 0 0 1 8.7558594 17.1875 A 1.7010212 3.742247 0 0 1 8.2148438 17.392578 A 1.7010212 3.742247 0 0 1 6.5136719 13.650391 A 1.7010212 3.742247 0 0 1 7.875 9.9902344 L 7.875 5.9765625 A 0.34020423 0.34020423 0 0 1 8.4570312 5.7382812 L 9.8183594 7.125 A 4.0824508 4.0824508 0 0 1 11.957031 6.5058594 A 4.0824508 4.0824508 0 0 1 14.072266 7.1113281 L 15.458984 5.7265625 A 0.34020423 0.34020423 0 0 1 15.660156 5.6289062 A 0.34020423 0.34020423 0 0 1 15.732422 5.6269531 z "
     style="fill:#4b5661;stroke:#bebebe;stroke-width:0.5;stroke-miterlimit:4;stroke-dasharray:none;stroke-opacity:1"
     id="use528" />
  <path
     id="path913" />
  <path
     id="path915" />
  <path
     id="path917" />
</svg>
