<?xml version="1.0" encoding="UTF-8" standalone="no"?>
<svg
   data-name="Layer 1"
   height="24"
   id="Layer_1"
   viewBox="0 0 24 24"
   width="24"
   version="1.1"
   sodipodi:docname="icon.svg"
   inkscape:version="1.2.1 (9c6d41e, 2022-07-14)"
   inkscape:export-filename="../../../../../Downloads/256.png"
   inkscape:export-xdpi="1024"
   inkscape:export-ydpi="1024"
   xmlns:inkscape="http://www.inkscape.org/namespaces/inkscape"
   xmlns:sodipodi="http://sodipodi.sourceforge.net/DTD/sodipodi-0.dtd"
   xmlns="http://www.w3.org/2000/svg"
   xmlns:svg="http://www.w3.org/2000/svg">
  <defs
     id="defs61" />
  <sodipodi:namedview
     id="namedview59"
     pagecolor="#ffffff"
     bordercolor="#666666"
     borderopacity="1.0"
     inkscape:pageshadow="2"
     inkscape:pageopacity="0.0"
     inkscape:pagecheckerboard="0"
     showgrid="true"
     showguides="true"
     inkscape:zoom="25.013902"
     inkscape:cx="8.0155426"
     inkscape:cy="12.013319"
     inkscape:window-width="1440"
     inkscape:window-height="847"
     inkscape:window-x="0"
     inkscape:window-y="25"
     inkscape:window-maximized="1"
     inkscape:current-layer="Layer_1"
     inkscape:showpageshadow="2"
     inkscape:deskcolor="#d1d1d1">
    <inkscape:grid
       type="xygrid"
       id="grid388" />
  </sodipodi:namedview>
  <title
     id="title36" />
  <path
     id="path539"
     style="fill:#4b5661;stroke-width:0.5;stroke:#bebebe;stroke-opacity:1;opacity:1;stroke-miterlimit:4;stroke-dasharray:none"
     d="M 17.927734 0.70703125 A 0.5444302 0.5444302 0 0 0 17.603516 0.86328125 L 15.386719 3.0800781 A 6.5331624 6.5331624 0 0 0 12 2.1113281 A 6.5331624 6.5331624 0 0 0 8.578125 3.1035156 L 6.4003906 0.88476562 A 0.5444302 0.5444302 0 0 0 5.4667969 1.265625 L 5.4667969 7.6894531 A 2.722151 5.9887328 0 0 0 3.2890625 13.544922 A 2.722151 5.9887328 0 0 0 6.0117188 19.533203 A 2.722151 5.9887328 0 0 0 6.8769531 19.207031 A 6.5331624 6.5331624 0 0 0 12 21.710938 A 6.5331624 6.5331624 0 0 0 17.123047 19.207031 A 2.722151 5.9887328 0 0 0 17.988281 19.533203 A 2.722151 5.9887328 0 0 0 20.710938 13.544922 A 2.722151 5.9887328 0 0 0 18.533203 7.6777344 L 18.533203 1.2480469 A 0.5444302 0.5444302 0 0 0 17.927734 0.70703125 z M 16.478516 3.5605469 A 0.4156992 0.4156992 0 0 1 16.566406 3.5605469 A 0.4156992 0.4156992 0 0 1 16.652344 3.578125 A 0.4156992 0.4156992 0 0 1 16.732422 3.6132812 A 0.4156992 0.4156992 0 0 1 16.802734 3.6640625 A 0.4156992 0.4156992 0 0 1 16.861328 3.7285156 A 0.4156992 0.4156992 0 0 1 16.90625 3.8027344 A 0.4156992 0.4156992 0 0 1 16.931641 3.8867188 A 0.4156992 0.4156992 0 0 1 16.941406 3.9726562 L 16.941406 8.8828125 A 2.0784959 4.5726915 0 0 1 17.283203 9.1035156 A 2.0784959 4.5726915 0 0 1 17.601562 9.4492188 A 2.0784959 4.5726915 0 0 1 17.888672 9.9101562 A 2.0784959 4.5726915 0 0 1 18.136719 10.470703 A 2.0784959 4.5726915 0 0 1 18.335938 11.117188 A 2.0784959 4.5726915 0 0 1 18.484375 11.828125 A 2.0784959 4.5726915 0 0 1 18.574219 12.583984 A 2.0784959 4.5726915 0 0 1 18.605469 13.363281 A 2.0784959 4.5726915 0 0 1 18.572266 14.15625 A 2.0784959 4.5726915 0 0 1 18.478516 14.925781 A 2.0784959 4.5726915 0 0 1 18.326172 15.648438 A 2.0784959 4.5726915 0 0 1 18.117188 16.302734 A 2.0784959 4.5726915 0 0 1 17.861328 16.865234 A 2.0784959 4.5726915 0 0 1 17.564453 17.322266 A 2.0784959 4.5726915 0 0 1 17.236328 17.660156 A 2.0784959 4.5726915 0 0 1 16.886719 17.865234 A 2.0784959 4.5726915 0 0 1 16.525391 17.935547 A 2.0784959 4.5726915 0 0 1 16.191406 17.869141 A 2.0784959 4.5726915 0 0 1 15.865234 17.685547 A 4.9883902 4.9883902 0 0 1 15.248047 18.341797 A 4.9883902 4.9883902 0 0 1 14.523438 18.875 A 4.9883902 4.9883902 0 0 1 13.714844 19.269531 A 4.9883902 4.9883902 0 0 1 12.849609 19.513672 A 4.9883902 4.9883902 0 0 1 11.953125 19.597656 A 4.9883902 4.9883902 0 0 1 11.056641 19.513672 A 4.9883902 4.9883902 0 0 1 10.191406 19.269531 A 4.9883902 4.9883902 0 0 1 9.3828125 18.875 A 4.9883902 4.9883902 0 0 1 8.6582031 18.341797 A 4.9883902 4.9883902 0 0 1 8.0410156 17.685547 A 2.0784959 4.5726915 0 0 1 7.7167969 17.869141 A 2.0784959 4.5726915 0 0 1 7.3808594 17.935547 A 2.0784959 4.5726915 0 0 1 7.0195312 17.865234 A 2.0784959 4.5726915 0 0 1 6.6699219 17.660156 A 2.0784959 4.5726915 0 0 1 6.3417969 17.322266 A 2.0784959 4.5726915 0 0 1 6.0449219 16.865234 A 2.0784959 4.5726915 0 0 1 5.7890625 16.302734 A 2.0784959 4.5726915 0 0 1 5.5800781 15.648438 A 2.0784959 4.5726915 0 0 1 5.4277344 14.925781 A 2.0784959 4.5726915 0 0 1 5.3339844 14.15625 A 2.0784959 4.5726915 0 0 1 5.3027344 13.363281 A 2.0784959 4.5726915 0 0 1 5.3339844 12.583984 A 2.0784959 4.5726915 0 0 1 5.4238281 11.830078 A 2.0784959 4.5726915 0 0 1 5.5722656 11.121094 A 2.0784959 4.5726915 0 0 1 5.7714844 10.476562 A 2.0784959 4.5726915 0 0 1 6.0195312 9.9160156 A 2.0784959 4.5726915 0 0 1 6.3066406 9.4570312 A 2.0784959 4.5726915 0 0 1 6.625 9.1132812 A 2.0784959 4.5726915 0 0 1 6.9648438 8.8925781 L 6.9648438 3.9863281 A 0.4156992 0.4156992 0 0 1 7.0351562 3.7539062 A 0.4156992 0.4156992 0 0 1 7.2226562 3.6015625 A 0.4156992 0.4156992 0 0 1 7.4648438 3.5800781 A 0.4156992 0.4156992 0 0 1 7.6777344 3.6953125 L 9.3398438 5.390625 A 4.9883902 4.9883902 0 0 1 9.9472656 5.0664062 A 4.9883902 4.9883902 0 0 1 10.59375 4.8300781 A 4.9883902 4.9883902 0 0 1 11.267578 4.6835938 A 4.9883902 4.9883902 0 0 1 11.953125 4.6328125 A 4.9883902 4.9883902 0 0 1 12.855469 4.7207031 A 4.9883902 4.9883902 0 0 1 13.726562 4.96875 A 4.9883902 4.9883902 0 0 1 14.539062 5.3730469 L 16.232422 3.6796875 A 0.4156992 0.4156992 0 0 1 16.345703 3.5996094 A 0.4156992 0.4156992 0 0 1 16.478516 3.5605469 z " />
</svg>
